<?xml version="1.0" standalone="no"?><!DOCTYPE svg PUBLIC "-//W3C//DTD SVG 1.1//EN" "http://www.w3.org/Graphics/SVG/1.1/DTD/svg11.dtd"><svg height="1024" node-id="1" sillyvg="true" template-height="1024" template-width="1024" version="1.1" viewBox="0 0 1024 1024" width="1024" xmlns="http://www.w3.org/2000/svg" xmlns:xlink="http://www.w3.org/1999/xlink"><defs node-id="33"></defs><path d="M 486.10 541.30 L 472.30 541.30 L 472.30 539.30 L 488.00 539.10 L 490.00 538.60 L 494.50 536.20 L 498.60 532.30 L 501.90 527.30 L 504.80 520.20 L 507.10 510.40 L 508.10 498.60 L 507.90 483.40 L 505.90 464.40 L 502.00 442.70 L 495.90 414.70 L 493.40 400.40 L 491.60 386.50 L 490.30 372.50 L 489.50 359.10 L 489.20 346.20 L 489.70 321.20 L 491.60 298.40 L 494.40 278.30 L 496.90 264.30 L 499.30 252.80 L 504.40 232.40 L 504.20 229.10 L 503.30 226.80 L 501.80 224.70 L 499.10 222.80 L 497.40 222.10 L 494.70 221.70 L 292.10 221.70 L 289.80 222.00 L 287.70 222.80 L 285.80 224.00 L 284.20 225.70 L 280.30 232.30 L 278.30 236.80 L 276.20 242.60 L 274.40 249.10 L 272.60 257.40 L 270.60 257.00 L 272.40 248.60 L 274.30 241.90 L 276.50 235.80 L 278.60 231.30 L 280.80 227.30 L 283.80 223.10 L 286.80 221.00 L 289.40 220.00 L 292.10 219.70 L 494.70 219.70 L 496.80 219.90 L 500.60 221.30 L 502.30 222.50 L 504.90 225.50 L 506.30 229.30 L 506.40 233.00 L 501.20 253.10 L 498.80 264.70 L 496.30 278.60 L 493.60 298.60 L 491.70 321.30 L 491.10 346.10 L 491.40 358.90 L 492.20 372.30 L 493.50 386.20 L 495.40 400.00 L 497.80 414.30 L 504.00 442.30 L 507.80 464.30 L 509.80 483.60 L 510.00 499.00 L 509.60 505.60 L 507.80 516.60 L 506.50 521.10 L 503.40 528.40 L 500.00 533.60 L 495.90 537.70 L 491.10 540.30 L 488.90 540.90 L 486.10 541.30 Z" fill="#e6e6e6" fill-rule="nonzero" node-id="35" stroke="none" target-height="321.59998" target-width="239.4" target-x="270.6" target-y="219.7"></path><path d="M 449.60 577.80 L 435.80 577.80 L 435.80 575.80 L 451.50 575.60 L 453.50 575.10 L 458.00 572.70 L 462.10 568.80 L 465.40 563.80 L 468.30 556.70 L 470.60 546.90 L 471.60 535.10 L 471.40 519.90 L 469.40 500.90 L 465.50 479.20 L 459.40 451.20 L 456.90 436.90 L 455.10 423.00 L 453.80 409.00 L 453.00 395.60 L 452.70 382.70 L 453.20 357.70 L 455.10 334.90 L 457.90 314.80 L 460.40 300.80 L 462.80 289.30 L 467.90 268.90 L 467.70 265.60 L 466.80 263.30 L 465.30 261.20 L 462.60 259.30 L 460.90 258.60 L 458.20 258.20 L 255.60 258.20 L 253.30 258.50 L 251.20 259.30 L 249.30 260.50 L 247.70 262.20 L 243.80 268.80 L 241.80 273.30 L 239.70 279.10 L 237.90 285.60 L 236.10 293.90 L 234.10 293.50 L 235.90 285.10 L 237.80 278.40 L 240.00 272.30 L 242.10 267.80 L 244.30 263.80 L 247.30 259.60 L 250.30 257.50 L 252.90 256.50 L 255.60 256.20 L 458.20 256.20 L 460.30 256.40 L 464.10 257.80 L 465.80 259.00 L 468.40 262.00 L 469.80 265.80 L 469.90 269.50 L 464.70 289.60 L 462.30 301.20 L 459.80 315.10 L 457.10 335.10 L 455.20 357.80 L 454.60 382.60 L 454.90 395.40 L 455.70 408.80 L 457.00 422.70 L 458.90 436.50 L 461.30 450.80 L 467.50 478.80 L 471.30 500.80 L 473.30 520.10 L 473.50 535.50 L 473.10 542.10 L 471.30 553.10 L 470.00 557.60 L 466.90 564.90 L 463.50 570.10 L 459.40 574.20 L 454.60 576.80 L 452.40 577.40 L 449.60 577.80 Z" fill="#cccccc" fill-rule="nonzero" node-id="37" stroke="none" target-height="321.59998" target-width="239.4" target-x="234.1" target-y="256.2"></path><path d="M 413.10 614.30 L 213.40 614.30 L 211.30 614.10 L 207.50 612.70 L 205.80 611.60 L 203.20 608.50 L 201.80 604.70 L 201.60 602.60 L 201.80 600.40 L 204.50 592.40 L 206.80 584.20 L 209.30 571.40 L 210.50 563.10 L 211.80 545.30 L 211.80 523.30 L 211.20 510.80 L 210.10 496.70 L 208.50 482.60 L 206.30 466.90 L 200.40 432.20 L 198.20 416.80 L 196.60 403.10 L 195.40 389.40 L 194.80 377.30 L 194.90 356.10 L 195.40 346.90 L 197.40 331.20 L 198.60 324.60 L 201.70 313.60 L 204.90 305.70 L 207.40 300.80 L 209.50 297.70 L 212.10 295.10 L 213.70 294.20 L 216.30 293.20 L 219.00 292.90 L 421.60 292.90 L 423.70 293.10 L 427.50 294.50 L 429.20 295.70 L 431.80 298.70 L 433.20 302.50 L 433.30 306.20 L 428.10 326.30 L 425.70 337.90 L 423.20 351.80 L 420.50 371.80 L 418.60 394.50 L 418.00 419.30 L 418.30 432.10 L 419.10 445.50 L 420.40 459.40 L 422.30 473.20 L 424.70 487.50 L 430.90 515.50 L 434.70 537.50 L 436.70 556.80 L 436.90 572.20 L 436.50 578.80 L 434.70 589.80 L 433.40 594.30 L 430.30 601.60 L 426.90 606.80 L 422.80 610.70 L 418.10 613.30 L 415.90 614.00 L 413.10 614.30 Z M 219.10 294.80 L 216.80 295.10 L 214.70 295.90 L 212.80 297.10 L 211.20 298.80 L 209.20 301.90 L 206.70 306.60 L 203.60 314.50 L 200.60 325.30 L 199.30 331.90 L 197.40 347.40 L 196.90 356.50 L 196.90 377.50 L 198.70 403.10 L 200.30 416.60 L 202.50 431.90 L 208.20 465.70 L 210.40 480.90 L 212.00 494.50 L 213.90 520.50 L 214.10 542.40 L 213.00 560.50 L 212.00 569.00 L 209.40 582.80 L 207.70 589.10 L 203.80 601.20 L 203.70 603.60 L 204.30 605.80 L 205.40 608.00 L 207.00 609.80 L 208.90 611.20 L 211.10 612.00 L 213.50 612.30 L 413.00 612.30 L 415.10 612.10 L 419.80 610.30 L 423.50 607.60 L 427.30 603.10 L 430.60 596.80 L 433.10 588.80 L 434.20 583.40 L 435.20 571.60 L 435.30 563.90 L 434.20 547.60 L 431.40 527.20 L 429.10 515.70 L 423.00 487.70 L 420.50 473.40 L 418.70 459.50 L 417.40 445.50 L 416.60 432.10 L 416.30 419.20 L 416.40 406.40 L 417.60 382.80 L 420.00 360.90 L 424.00 337.30 L 426.40 325.80 L 431.50 305.40 L 431.30 302.10 L 430.40 299.80 L 428.90 297.70 L 426.20 295.80 L 424.50 295.10 L 421.80 294.70 L 219.10 294.70 Z" fill="#3f3d56" fill-rule="nonzero" node-id="39" stroke="none" target-height="321.4" target-width="242.09999" target-x="194.8" target-y="292.9"></path><path d="M 387.30 382.80 L 228.30 382.80 L 226.20 382.50 L 224.30 381.70 L 222.60 380.40 L 221.40 378.80 L 220.60 376.90 L 220.30 374.80 L 220.60 372.70 L 221.40 370.80 L 222.60 369.20 L 224.30 367.90 L 226.20 367.10 L 228.30 366.80 L 387.30 366.80 L 389.40 367.10 L 391.30 367.90 L 393.00 369.10 L 394.20 370.80 L 395.00 372.70 L 395.30 374.80 L 395.00 376.90 L 394.20 378.80 L 392.90 380.40 L 391.30 381.70 L 389.40 382.50 L 387.30 382.80 Z" fill="#c5a47a" fill-rule="nonzero" node-id="41" stroke="none" target-height="16" target-width="174.99998" target-x="220.3" target-y="366.8"></path><path d="M 387.30 416.80 L 228.30 416.80 L 226.20 416.50 L 224.30 415.70 L 222.60 414.50 L 221.40 412.80 L 220.60 410.90 L 220.30 408.80 L 220.60 406.70 L 221.40 404.80 L 222.60 403.10 L 224.30 401.90 L 226.20 401.10 L 228.30 400.80 L 387.30 400.80 L 389.40 401.10 L 391.30 401.90 L 393.00 403.10 L 394.20 404.80 L 395.00 406.70 L 395.30 408.80 L 395.00 410.90 L 394.20 412.80 L 392.90 414.50 L 391.30 415.70 L 389.40 416.50 L 387.30 416.80 Z" fill="#cccccc" fill-rule="nonzero" node-id="43" stroke="none" target-height="16" target-width="174.99998" target-x="220.3" target-y="400.8"></path><path d="M 387.30 450.80 L 228.30 450.80 L 226.20 450.50 L 224.30 449.70 L 222.60 448.50 L 221.40 446.80 L 220.60 444.90 L 220.30 442.80 L 220.60 440.70 L 221.40 438.80 L 222.60 437.10 L 224.30 435.90 L 226.20 435.10 L 228.30 434.80 L 387.30 434.80 L 389.40 435.10 L 391.30 435.90 L 393.00 437.10 L 394.20 438.80 L 395.00 440.70 L 395.30 442.80 L 395.00 444.90 L 394.20 446.80 L 392.90 448.40 L 391.30 449.70 L 389.40 450.50 L 387.30 450.80 Z" fill="#cccccc" fill-rule="nonzero" node-id="45" stroke="none" target-height="16" target-width="174.99998" target-x="220.3" target-y="434.8"></path><path d="M 399.30 484.80 L 240.30 484.80 L 238.20 484.50 L 236.30 483.70 L 234.60 482.50 L 233.40 480.80 L 232.60 478.90 L 232.30 476.80 L 232.60 474.70 L 233.40 472.80 L 234.70 471.10 L 236.30 469.90 L 238.20 469.10 L 240.30 468.80 L 399.30 468.80 L 401.40 469.10 L 403.30 469.90 L 404.90 471.10 L 406.20 472.80 L 407.00 474.70 L 407.30 476.80 L 407.00 478.90 L 406.20 480.80 L 404.90 482.40 L 403.30 483.70 L 401.40 484.50 L 399.30 484.80 Z" fill="#cccccc" fill-rule="nonzero" node-id="47" stroke="none" target-height="16" target-width="174.99998" target-x="232.3" target-y="468.8"></path><path d="M 399.30 518.80 L 240.30 518.80 L 238.20 518.50 L 236.30 517.70 L 234.60 516.40 L 233.40 514.80 L 232.60 512.90 L 232.30 510.80 L 232.60 508.70 L 233.40 506.80 L 234.70 505.20 L 236.30 503.90 L 238.20 503.10 L 240.30 502.80 L 399.30 502.80 L 401.40 503.10 L 403.30 503.90 L 404.90 505.10 L 406.20 506.80 L 407.00 508.70 L 407.30 510.80 L 407.00 512.90 L 406.20 514.80 L 404.90 516.40 L 403.30 517.70 L 401.40 518.50 L 399.30 518.80 Z" fill="#cccccc" fill-rule="nonzero" node-id="49" stroke="none" target-height="16" target-width="174.99998" target-x="232.3" target-y="502.8"></path><path d="M 303.30 348.80 L 228.30 348.80 L 226.20 348.50 L 224.30 347.70 L 222.60 346.40 L 221.40 344.80 L 220.60 342.90 L 220.30 340.80 L 220.60 338.70 L 221.40 336.80 L 222.70 335.10 L 224.30 333.90 L 226.20 333.10 L 228.30 332.80 L 303.30 332.80 L 305.40 333.10 L 307.30 333.90 L 308.90 335.10 L 310.20 336.80 L 311.00 338.70 L 311.30 340.80 L 311.00 342.90 L 310.20 344.80 L 308.90 346.40 L 307.30 347.70 L 305.40 348.50 L 303.30 348.80 Z" fill="#c5a47a" fill-rule="nonzero" node-id="51" stroke="none" target-height="16" target-width="90.999985" target-x="220.3" target-y="332.8"></path><path d="M 293.60 573.60 L 294.40 571.50 L 295.50 569.70 L 298.60 567.00 L 302.60 565.40 L 305.80 564.90 L 309.00 564.80 L 314.80 565.50 L 320.60 566.60 L 332.50 569.70 L 348.70 574.50 L 358.70 576.60 L 366.70 577.10 L 372.90 576.10 L 375.70 575.00 L 378.30 573.50 L 380.70 571.60 L 382.70 569.40 L 384.20 566.90 L 385.30 564.00 L 385.80 561.10 L 385.60 558.30 L 384.90 555.60 L 383.60 553.10 L 382.40 551.70 L 379.20 549.50 L 376.60 548.60 L 374.00 548.30 L 370.50 548.90 L 367.60 550.70 L 365.40 553.70 L 364.70 555.80 L 364.30 559.80 L 364.90 562.80 L 366.10 565.70 L 367.80 568.30 L 369.80 570.70 L 373.80 574.10 L 381.10 578.80 L 384.40 580.30 L 387.90 581.40 L 390.90 581.70 L 393.90 581.60 L 396.80 580.90 L 399.50 579.60 L 401.10 578.40 L 403.60 575.30 L 404.40 573.30 L 404.80 571.30 L 404.70 570.50 L 404.20 570.00 L 402.70 570.00 L 402.10 570.50 L 400.70 574.50 L 399.60 575.80 L 397.50 577.30 L 395.10 578.30 L 392.50 578.80 L 390.00 578.80 L 386.70 578.10 L 383.70 576.90 L 377.00 572.80 L 373.30 570.00 L 369.50 565.80 L 368.10 563.30 L 367.30 560.60 L 367.20 558.80 L 368.10 555.10 L 369.00 553.70 L 371.30 552.00 L 373.40 551.50 L 375.60 551.60 L 377.80 552.30 L 379.70 553.50 L 381.90 556.20 L 382.40 557.80 L 382.70 560.30 L 382.40 562.90 L 381.60 565.30 L 380.40 567.60 L 378.60 569.70 L 376.60 571.40 L 374.20 572.70 L 371.60 573.60 L 366.20 574.40 L 361.90 574.30 L 357.50 573.70 L 349.00 571.70 L 322.40 564.20 L 312.60 562.40 L 308.70 562.10 L 304.80 562.20 L 301.70 562.80 L 298.70 563.90 L 295.90 565.50 L 293.60 567.50 L 292.30 569.20 L 290.60 573.10 L 290.70 573.80 L 291.80 574.70 L 293.20 574.30 L 293.60 573.60 Z" fill="#3f3d56" fill-rule="nonzero" node-id="53" stroke="none" target-height="33.400024" target-width="114.19998" target-x="290.6" target-y="548.3"></path><path d="M 600.10 743.30 L 600.50 758.00 L 601.30 772.80 L 602.60 787.50 L 604.70 804.30 L 789.10 803.30 L 795.50 794.10 L 799.60 786.00 L 802.50 777.60 L 803.30 773.50 L 803.80 769.60 L 803.90 765.70 L 803.40 762.10 L 802.60 758.90 L 800.60 754.90 L 799.20 753.10 L 797.20 751.20 L 794.90 749.70 L 792.40 748.60 L 789.60 747.80 L 785.70 747.30 L 781.40 747.40 L 776.80 748.10 L 772.30 749.20 L 767.70 750.80 L 763.00 752.90 L 767.00 748.30 L 774.20 738.50 L 777.30 733.30 L 780.00 728.20 L 782.30 723.00 L 784.10 717.60 L 785.20 712.40 L 785.80 707.40 L 785.70 702.50 L 785.10 698.10 L 784.00 694.00 L 780.50 686.30 L 778.30 682.80 L 774.60 677.80 L 769.70 672.30 L 766.00 668.50 L 759.80 663.50 L 754.20 660.60 L 751.10 659.70 L 747.80 659.20 L 744.20 659.20 L 740.20 659.80 L 736.10 661.00 L 731.90 662.90 L 723.80 667.90 L 719.90 671.00 L 712.70 678.10 L 704.90 688.00 L 700.90 694.20 L 693.90 707.10 L 684.30 726.70 L 677.30 739.70 L 673.30 746.00 L 669.00 752.00 L 664.20 757.80 L 668.70 751.90 L 676.90 739.70 L 680.60 733.40 L 686.90 720.70 L 689.40 714.20 L 691.50 707.80 L 693.10 701.40 L 694.20 694.90 L 694.70 688.70 L 694.60 682.80 L 693.30 674.10 L 690.70 666.50 L 688.90 663.00 L 686.70 659.90 L 684.20 657.10 L 681.30 654.60 L 678.40 652.80 L 675.40 651.30 L 672.10 650.20 L 667.10 649.30 L 659.30 649.20 L 651.10 650.70 L 642.70 653.70 L 638.70 655.80 L 630.70 661.30 L 626.60 664.90 L 622.80 668.80 L 616.10 677.50 L 613.20 682.10 L 608.40 691.80 L 604.80 701.50 L 602.90 708.70 L 601.60 715.70 L 600.70 722.60 L 600.10 733.10 L 600.10 743.30 Z" fill="#f2f2f2" fill-rule="nonzero" node-id="55" stroke="none" target-height="155.09998" target-width="203.80005" target-x="600.1" target-y="649.2"></path><path d="M 720.70 803.50 L 724.20 803.50 L 747.30 789.60 L 765.00 779.50 L 782.80 769.90 L 800.70 760.70 L 801.30 760.30 L 801.50 759.00 L 801.00 758.60 L 800.30 758.70 L 778.00 770.20 L 760.10 780.00 L 742.30 790.20 L 720.70 803.50 Z" fill="#ffffff" fill-rule="nonzero" node-id="57" stroke="none" target-height="44.900024" target-width="80.79999" target-x="720.7" target-y="758.6"></path><path d="M 675.30 803.80 L 677.50 803.80 L 770.40 673.50 L 770.50 672.30 L 769.80 672.10 L 768.60 672.80 L 675.30 803.80 Z" fill="#ffffff" fill-rule="nonzero" node-id="59" stroke="none" target-height="131.70001" target-width="95.20001" target-x="675.3" target-y="672.1"></path><path d="M 626.70 791.10 L 627.60 804.10 L 629.90 804.10 L 628.80 786.20 L 629.00 775.00 L 629.80 763.90 L 631.20 752.80 L 633.10 741.80 L 635.70 730.00 L 638.80 718.40 L 642.40 707.00 L 646.50 695.70 L 651.30 684.00 L 656.60 672.50 L 668.70 649.30 L 668.10 648.70 L 666.80 649.50 L 657.80 666.10 L 652.30 677.50 L 647.30 689.00 L 642.70 700.80 L 638.80 712.20 L 635.40 723.60 L 632.60 735.30 L 630.20 747.00 L 628.50 757.90 L 627.30 768.90 L 626.70 780.00 L 626.70 791.10 Z" fill="#ffffff" fill-rule="nonzero" node-id="61" stroke="none" target-height="155.39996" target-width="42" target-x="626.7" target-y="648.7"></path><path d="M 403.80 574.40 L 403.20 573.60 L 403.00 571.70 L 404.20 570.30 L 405.20 570.00 L 409.40 569.80 L 413.40 570.00 L 417.40 570.70 L 474.70 588.20 L 476.10 588.80 L 477.10 589.70 L 478.40 592.20 L 478.30 595.10 L 477.70 596.50 L 475.60 598.30 L 472.90 598.90 L 471.40 598.70 L 418.10 582.20 L 410.60 579.00 L 403.80 574.40 Z" fill="#3f3d56" fill-rule="nonzero" node-id="63" stroke="none" target-height="29.100037" target-width="75.399994" target-x="403" target-y="569.8"></path><path d="M 622.40 642.80 L 620.70 641.90 L 618.00 639.30 L 616.30 636.10 L 615.90 634.30 L 616.00 630.60 L 617.50 627.00 L 608.40 579.20 L 631.70 577.40 L 633.10 624.10 L 634.60 625.40 L 636.60 628.50 L 637.20 630.30 L 637.40 634.00 L 636.30 637.50 L 635.30 639.20 L 633.60 641.00 L 631.60 642.40 L 629.40 643.30 L 627.10 643.60 L 624.70 643.50 L 622.40 642.80 Z" fill="#ffb8b8" fill-rule="nonzero" node-id="65" stroke="none" target-height="66.19995" target-width="29" target-x="608.4" target-y="577.4"></path><path d="M 606.90 618.10 L 583.20 507.60 L 582.80 504.40 L 583.00 501.40 L 583.70 498.50 L 584.90 495.70 L 586.50 493.20 L 588.50 491.00 L 590.90 489.20 L 593.60 487.80 L 596.60 486.80 L 599.80 486.40 L 602.80 486.60 L 605.70 487.30 L 608.50 488.50 L 611.00 490.10 L 613.20 492.10 L 615.00 494.50 L 616.40 497.20 L 617.40 500.20 L 641.20 611.90 L 641.00 613.00 L 639.70 614.90 L 637.60 616.00 L 612.20 621.50 L 611.00 621.60 L 608.80 620.90 L 607.30 619.20 L 606.90 618.10 Z" fill="#c5a47a" fill-rule="nonzero" node-id="67" stroke="none" target-height="135.19998" target-width="58.400024" target-x="582.8" target-y="486.4"></path><path d="M 568.00 791.90 L 555.70 791.90 L 549.90 744.60 L 568.00 744.60 Z" fill="#ffb8b8" fill-rule="nonzero" node-id="69" stroke="none" target-height="47.30005" target-width="18.099976" target-x="549.9" target-y="744.6"></path><path d="M 547.00 788.40 L 570.60 788.40 L 570.60 803.30 L 532.10 803.30 L 532.40 800.60 L 533.00 798.10 L 534.10 795.80 L 535.60 793.70 L 537.40 791.90 L 539.40 790.40 L 541.80 789.30 L 544.30 788.70 L 547.00 788.40 Z" fill="#2f2e41" fill-rule="nonzero" node-id="71" stroke="none" target-height="14.899963" target-width="38.5" target-x="532.1" target-y="788.4"></path><path d="M 609.00 790.90 L 596.70 790.90 L 590.90 743.60 L 609.00 743.60 Z" fill="#ffb8b8" fill-rule="nonzero" node-id="73" stroke="none" target-height="47.30005" target-width="18.099976" target-x="590.9" target-y="743.6"></path><path d="M 588.00 787.40 L 611.60 787.40 L 611.60 802.30 L 573.10 802.30 L 573.40 799.60 L 574.00 797.10 L 575.10 794.80 L 576.60 792.70 L 578.40 790.90 L 580.40 789.40 L 582.80 788.30 L 585.30 787.70 L 588.00 787.40 Z" fill="#2f2e41" fill-rule="nonzero" node-id="75" stroke="none" target-height="14.899963" target-width="38.5" target-x="573.1" target-y="787.4"></path><path d="M 553.30 783.10 L 552.50 782.20 L 551.70 780.00 L 537.40 623.20 L 537.80 620.90 L 539.30 619.10 L 541.50 618.30 L 613.20 615.60 L 615.50 616.10 L 617.20 617.70 L 617.90 620.20 L 612.20 776.40 L 611.80 778.00 L 611.00 779.30 L 609.70 780.30 L 608.10 780.70 L 593.70 782.00 L 591.40 781.60 L 589.60 780.10 L 589.10 779.10 L 582.20 678.60 L 581.80 677.60 L 580.70 677.20 L 579.70 677.60 L 579.20 678.60 L 573.30 778.50 L 572.90 780.10 L 572.10 781.40 L 570.80 782.30 L 569.30 782.70 L 556.70 784.00 L 555.40 784.00 L 553.30 783.10 Z" fill="#2f2e41" fill-rule="nonzero" node-id="77" stroke="none" target-height="168.40002" target-width="80.5" target-x="537.4" target-y="615.6"></path><path d="M 605.40 438.80 L 605.20 442.20 L 604.50 445.40 L 603.50 448.40 L 602.00 451.20 L 600.30 453.80 L 598.20 456.20 L 595.80 458.30 L 593.20 460.00 L 590.40 461.50 L 587.40 462.50 L 584.20 463.20 L 580.80 463.40 L 577.40 463.20 L 574.20 462.50 L 571.20 461.50 L 568.40 460.00 L 565.80 458.30 L 561.30 453.80 L 559.60 451.20 L 558.10 448.40 L 557.10 445.40 L 556.40 442.20 L 556.20 438.80 L 556.40 435.40 L 557.10 432.20 L 558.10 429.20 L 561.30 423.80 L 563.40 421.40 L 565.80 419.30 L 568.40 417.60 L 571.20 416.10 L 574.20 415.10 L 577.40 414.40 L 580.80 414.20 L 584.20 414.40 L 587.40 415.10 L 590.40 416.10 L 593.20 417.60 L 595.80 419.30 L 598.20 421.40 L 600.30 423.80 L 602.00 426.40 L 603.50 429.20 L 604.50 432.20 L 605.20 435.40 L 605.40 438.80 Z" fill="#ffb8b8" fill-rule="nonzero" node-id="79" stroke="none" target-height="49.19998" target-width="49.200012" target-x="556.2" target-y="414.2"></path><path d="M 533.50 624.30 L 532.90 623.50 L 532.40 621.60 L 534.10 606.10 L 534.60 597.90 L 534.90 585.50 L 534.70 572.60 L 533.50 547.00 L 531.20 518.10 L 531.60 513.00 L 532.60 508.00 L 534.10 503.10 L 536.20 498.50 L 538.80 494.10 L 541.90 490.10 L 545.50 486.40 L 562.40 472.10 L 563.80 471.30 L 565.50 471.00 L 597.40 471.90 L 599.00 472.20 L 600.50 473.20 L 605.40 484.10 L 609.30 487.20 L 612.60 490.70 L 615.60 494.50 L 618.10 498.60 L 620.10 502.90 L 621.70 507.40 L 622.80 512.10 L 623.40 516.90 L 623.40 521.80 L 618.70 618.70 L 618.30 620.30 L 617.40 621.70 L 616.00 622.60 L 614.40 623.00 L 537.10 625.70 L 535.60 625.60 L 534.50 625.10 L 533.50 624.30 Z" fill="#c5a47a" fill-rule="nonzero" node-id="81" stroke="none" target-height="154.70001" target-width="92.20001" target-x="531.2" target-y="471"></path><path d="M 440.70 583.80 L 440.80 581.80 L 442.00 578.30 L 443.10 576.80 L 445.80 574.40 L 449.20 573.00 L 453.10 572.90 L 493.00 545.00 L 504.20 565.50 L 462.10 586.00 L 461.50 587.90 L 459.50 591.00 L 458.10 592.20 L 454.80 593.90 L 451.20 594.40 L 449.20 594.20 L 446.80 593.40 L 444.80 592.10 L 443.10 590.50 L 441.90 588.50 L 441.00 586.30 L 440.70 583.80 Z" fill="#ffb8b8" fill-rule="nonzero" node-id="83" stroke="none" target-height="49.400024" target-width="63.5" target-x="440.7" target-y="545"></path><path d="M 474.30 588.70 L 473.20 588.40 L 471.40 586.90 L 456.00 565.90 L 455.10 563.70 L 455.50 561.50 L 456.10 560.50 L 548.10 492.70 L 550.90 491.10 L 553.70 490.00 L 556.60 489.40 L 559.60 489.40 L 562.50 489.80 L 565.40 490.80 L 568.10 492.20 L 570.40 494.10 L 572.60 496.50 L 574.20 499.30 L 575.30 502.10 L 575.90 505.00 L 575.90 508.00 L 575.50 510.90 L 574.50 513.80 L 573.10 516.50 L 571.20 518.80 L 568.80 521.00 L 477.70 587.90 L 476.40 588.60 L 474.30 588.70 Z" fill="#c5a47a" fill-rule="nonzero" node-id="85" stroke="none" target-height="99.30002" target-width="120.80002" target-x="455.1" target-y="489.4"></path><path d="M 582.00 460.70 L 583.40 458.50 L 584.10 456.10 L 584.40 453.60 L 584.10 451.00 L 583.40 448.50 L 582.30 446.20 L 580.80 444.10 L 577.20 440.50 L 574.00 438.20 L 560.30 431.20 L 557.00 429.20 L 555.20 427.20 L 553.80 423.10 L 551.70 409.30 L 554.40 410.20 L 552.00 403.60 L 553.50 403.90 L 559.10 406.80 L 560.50 407.10 L 558.70 402.30 L 562.60 402.40 L 566.00 403.00 L 569.30 404.10 L 579.10 407.60 L 582.50 408.20 L 594.30 408.30 L 599.30 409.60 L 601.60 410.80 L 604.70 413.90 L 607.40 419.00 L 608.50 422.30 L 609.60 427.10 L 610.30 432.00 L 610.50 436.90 L 610.00 441.80 L 608.30 448.00 L 607.00 450.90 L 605.20 453.70 L 603.10 456.10 L 600.70 458.40 L 597.90 460.20 L 595.00 461.60 L 592.00 462.60 L 588.80 463.10 L 585.70 462.90 L 582.50 462.20 L 582.00 460.70 Z" fill="#2f2e41" fill-rule="nonzero" node-id="87" stroke="none" target-height="60.80002" target-width="58.799988" target-x="551.7" target-y="402.3"></path><path d="M 447.20 803.80 L 828.20 803.80 L 828.90 803.50 L 829.20 802.80 L 828.90 802.10 L 828.20 801.80 L 447.20 801.80 L 446.50 802.10 L 446.20 802.80 L 446.50 803.50 L 447.20 803.80 Z" fill="#3f3d56" fill-rule="nonzero" node-id="89" stroke="none" target-height="2" target-width="383" target-x="446.2" target-y="801.8"></path></svg>